<?xml version="1.0" encoding="UTF-8"?>
<svg width="442" height="442" version="1.1" viewBox="0 0 117 117" xml:space="preserve"
     xmlns="http://www.w3.org/2000/svg">
    <defs>
        <linearGradient id="k2k" x1="123.09" x2="513.43" y1="792.55" y2="424.13"
                        gradientTransform="matrix(.26458 0 0 .26458 -37.245 -91.824)" gradientUnits="userSpaceOnUse">
            <stop stop-color="#8051ff" offset=".35"/>
            <stop stop-color="#e44a5a" offset="1"/>
        </linearGradient>
        <linearGradient id="k2i" x1="293.76" x2="445.69" y1="787.67" y2="644.5"
                        gradientTransform="matrix(.26458 0 0 .26458 -37.245 -91.824)"
                        gradientUnits="userSpaceOnUse">
            <stop stop-color="#8051ff" offset=".35"/>
            <stop stop-color="#f7901e" offset="1"/>
        </linearGradient>
    </defs>
    <g stroke-width="0">
        <path d="m47.902 73.086c47.739-45.365 8.034-50.807-1.9795-72.592 66.145 5.0875 50.332 57.423 1.9795 72.592z"
              fill="#f7901e"/>
        <path d="m51.728 100.68c-3.5666 2.7556-5.7379 6.5-5.8475 10.293 12.153 6.5918 27.264 8.5776 38.84 2.1846 17.655-9.7494 27.659-21.818 30.764-39.335 4.596-27.506-2.059-58.504-32.285-71.447 20.385 25.034 30.324 76.416 2.3018 96.046-11.637 8.1519-24.416 7.2185-33.773 2.2594z"
              fill="url(#k2i)" style="mix-blend-mode:normal"/>
        <path d="m41.069 0.19638c-14.053 0.03614-29.244 4.358-40.958 12.123 43.761-14.542 69.56 15.056 58.277 31.326-12.329 13.767-26.676 15.849-31.946 29.304-5.8722 14.993 4.5694 29.956 19.438 38.021 4.2318-2.5168 6.1449-7.1185 5.8475-10.293-11.824-6.2664-18.187-18.971-9.9186-28.013 7.39-9.156 20.971-17.008 26.009-27.929-0.7267 5.0199-2.5317 7.6124-7.2949 15.009 8.8215-8.98 17.543-22.464 16.258-35.595-0.96998-11.91-11.075-20.506-22.209-22.53-4.2607-0.9715-8.8187-1.4358-13.503-1.4237z"
              fill="url(#k2k)" style="mix-blend-mode:normal"/>
    </g>
</svg>
